<svg width="293" height="34" viewBox="0 0 293 34" fill="none" xmlns="http://www.w3.org/2000/svg">
<g filter="url(#filter0_d_15_42)">
<path d="M9.9707 21H5.45898L5.48633 19.5645H9.9707C11.4017 19.5645 12.6322 19.2454 13.6621 18.6074C14.7012 17.9603 15.5033 17.0671 16.0684 15.9277C16.6335 14.7884 16.916 13.4668 16.916 11.9629V10.1035C16.916 8.95508 16.752 7.91602 16.4238 6.98633C16.1048 6.05664 15.6445 5.26367 15.043 4.60742C14.4414 3.94206 13.7214 3.43164 12.8828 3.07617C12.0534 2.7207 11.1237 2.54297 10.0938 2.54297H5.37695V1.09375H10.0938C11.3333 1.09375 12.4681 1.30794 13.498 1.73633C14.5371 2.1556 15.4349 2.76628 16.1914 3.56836C16.957 4.36133 17.5449 5.3138 17.9551 6.42578C18.3743 7.53776 18.584 8.77734 18.584 10.1445V11.9629C18.584 13.3301 18.3743 14.5697 17.9551 15.6816C17.5449 16.7936 16.957 17.7461 16.1914 18.5391C15.4258 19.332 14.5189 19.9427 13.4707 20.3711C12.4225 20.7904 11.2559 21 9.9707 21ZM6.21094 1.09375V21H4.5293V1.09375H6.21094ZM30.5277 1.09375V21H28.8461V1.09375H30.5277ZM55.8973 11.5391V18.6211C55.6694 18.9583 55.2775 19.332 54.7215 19.7422C54.1655 20.1523 53.4181 20.5124 52.4793 20.8223C51.5405 21.123 50.3738 21.2734 48.9793 21.2734C47.8126 21.2734 46.7417 21.0638 45.7664 20.6445C44.7911 20.2253 43.9435 19.6191 43.2234 18.8262C42.5125 18.0241 41.9611 17.0625 41.5691 15.9414C41.1863 14.8203 40.9949 13.5625 40.9949 12.168V9.76172C40.9949 8.39453 41.1727 7.16406 41.5281 6.07031C41.8836 4.96745 42.3986 4.02409 43.073 3.24023C43.7475 2.45638 44.5587 1.85938 45.5066 1.44922C46.4637 1.02995 47.5346 0.820312 48.7195 0.820312C50.1961 0.820312 51.4402 1.07552 52.452 1.58594C53.4637 2.09635 54.2521 2.79818 54.8172 3.69141C55.3914 4.57552 55.7469 5.57812 55.8836 6.69922H54.202C54.0743 5.90625 53.81 5.17708 53.409 4.51172C53.0079 3.83724 52.4246 3.29492 51.659 2.88477C50.9025 2.47461 49.9227 2.26953 48.7195 2.26953C47.7534 2.26953 46.8921 2.44727 46.1355 2.80273C45.3882 3.1582 44.7592 3.66406 44.2488 4.32031C43.7384 4.97656 43.351 5.76497 43.0867 6.68555C42.8224 7.59701 42.6902 8.61328 42.6902 9.73438V12.168C42.6902 13.3346 42.8361 14.3874 43.1277 15.3262C43.4285 16.265 43.8569 17.0716 44.4129 17.7461C44.9689 18.4206 45.6342 18.9401 46.409 19.3047C47.1837 19.6602 48.0451 19.8379 48.993 19.8379C50.0047 19.8379 50.866 19.7422 51.577 19.5508C52.2879 19.3594 52.8576 19.1315 53.2859 18.8672C53.7234 18.5938 54.0379 18.3385 54.2293 18.1016V12.9746H48.8836V11.5391H55.8973ZM68.3605 1.09375V21H66.6789V1.09375H68.3605ZM85.6363 1.09375V21H83.9684V1.09375H85.6363ZM92.4586 1.09375V2.54297H77.1598V1.09375H92.4586ZM106.74 2.2832L99.8496 21H98.0996L105.619 1.09375H106.836L106.74 2.2832ZM113.002 21L106.098 2.2832L106.002 1.09375H107.219L114.752 21H113.002ZM111.771 13.9727V15.4219H101.203V13.9727H111.771ZM134.817 19.5645V21H124.495V19.5645H134.817ZM124.987 1.09375V21H123.305V1.09375H124.987ZM148.374 11.5117V12.9199H141.825V11.5117H148.374ZM169.71 14.793H171.392C171.255 16.1328 170.886 17.2904 170.284 18.2656C169.683 19.2318 168.863 19.9746 167.823 20.4941C166.784 21.0137 165.531 21.2734 164.064 21.2734C162.933 21.2734 161.908 21.0592 160.988 20.6309C160.076 20.2025 159.292 19.5964 158.636 18.8125C157.98 18.0195 157.474 17.0716 157.118 15.9688C156.763 14.8659 156.585 13.64 156.585 12.291V9.80273C156.585 8.45378 156.763 7.23242 157.118 6.13867C157.474 5.03581 157.984 4.08789 158.65 3.29492C159.315 2.50195 160.113 1.89128 161.042 1.46289C161.972 1.03451 163.02 0.820312 164.187 0.820312C165.599 0.820312 166.821 1.08008 167.851 1.59961C168.881 2.11003 169.692 2.84831 170.284 3.81445C170.886 4.7806 171.255 5.94727 171.392 7.31445H169.71C169.583 6.23893 169.3 5.32747 168.863 4.58008C168.425 3.83268 167.819 3.26302 167.044 2.87109C166.279 2.47005 165.326 2.26953 164.187 2.26953C163.257 2.26953 162.428 2.44727 161.698 2.80273C160.969 3.1582 160.349 3.66862 159.839 4.33398C159.329 4.99023 158.937 5.77865 158.663 6.69922C158.399 7.61979 158.267 8.64518 158.267 9.77539V12.291C158.267 13.3848 158.394 14.3919 158.65 15.3125C158.905 16.2331 159.279 17.0306 159.771 17.7051C160.272 18.3796 160.883 18.9036 161.603 19.2773C162.323 19.651 163.143 19.8379 164.064 19.8379C165.239 19.8379 166.219 19.651 167.003 19.2773C167.796 18.8945 168.411 18.3294 168.849 17.582C169.286 16.8346 169.573 15.9049 169.71 14.793ZM187.355 1.09375V21H185.687V1.09375H187.355ZM194.177 1.09375V2.54297H178.879V1.09375H194.177ZM209.457 14.3008L215.322 1.09375H217.291L209.676 17.582C209.493 17.9648 209.279 18.375 209.033 18.8125C208.787 19.2409 208.482 19.6419 208.117 20.0156C207.753 20.3893 207.306 20.6947 206.777 20.9316C206.249 21.1686 205.602 21.2871 204.836 21.2871C204.645 21.2871 204.412 21.2734 204.139 21.2461C203.865 21.2188 203.674 21.1823 203.564 21.1367L203.701 19.7422C203.82 19.7695 203.997 19.7969 204.234 19.8242C204.48 19.8424 204.686 19.8516 204.85 19.8516C205.442 19.8516 205.934 19.724 206.326 19.4688C206.718 19.2135 207.051 18.8854 207.324 18.4844C207.598 18.0742 207.844 17.6458 208.062 17.1992L209.457 14.3008ZM203.168 1.09375L209.854 14.2324L210.373 15.7227L208.938 16.0098L201.24 1.09375H203.168ZM240.473 19.5645V21H224.832V19.5645H240.473ZM225.202 19.5645V25.8262H223.534V19.5645H225.202ZM241.922 19.5645L241.909 25.8262H240.227V19.5645H241.922ZM238.45 1.09375V2.54297H229.399V1.09375H238.45ZM239.789 1.09375V21H238.121V1.09375H239.789ZM228.797 1.09375H230.479L230.123 8.27148C230.06 9.55664 229.932 10.7461 229.741 11.8398C229.558 12.9336 229.33 13.9362 229.057 14.8477C228.784 15.7591 228.483 16.5749 228.155 17.2949C227.827 18.0059 227.485 18.6211 227.129 19.1406C226.774 19.651 226.414 20.0658 226.049 20.3848C225.694 20.6947 225.352 20.8997 225.024 21H223.985V19.5645H224.86C225.079 19.3366 225.366 18.9629 225.721 18.4434C226.077 17.9147 226.441 17.2083 226.815 16.3242C227.198 15.431 227.535 14.3236 227.827 13.002C228.127 11.6712 228.332 10.0944 228.442 8.27148L228.797 1.09375ZM252.677 18.0742L264.011 1.09375H265.692V21H264.011V3.99219L252.677 21H250.995V1.09375H252.677V18.0742ZM287.671 12.8926H280.904L280.138 12.4961C278.78 12.0768 277.736 11.4023 277.007 10.4727C276.287 9.54297 275.927 8.41276 275.927 7.08203C275.927 5.79688 276.196 4.71224 276.734 3.82812C277.28 2.9349 278.06 2.25586 279.071 1.79102C280.083 1.32617 281.282 1.09375 282.667 1.09375H288.765V21H287.083V2.54297H282.667C280.99 2.54297 279.728 2.94857 278.88 3.75977C278.032 4.56185 277.609 5.66471 277.609 7.06836C277.609 7.92513 277.786 8.68164 278.142 9.33789C278.497 9.99414 279.017 10.5091 279.7 10.8828C280.393 11.2565 281.227 11.4434 282.202 11.4434H287.685L287.671 12.8926ZM281.888 11.8672L277.007 21H275.189L280.179 11.8672H281.888Z" fill="white"/>
</g>
<defs>
<filter id="filter0_d_15_42" x="0.529297" y="0.820312" width="292.236" height="33.0059" filterUnits="userSpaceOnUse" color-interpolation-filters="sRGB">
<feFlood flood-opacity="0" result="BackgroundImageFix"/>
<feColorMatrix in="SourceAlpha" type="matrix" values="0 0 0 0 0 0 0 0 0 0 0 0 0 0 0 0 0 0 127 0" result="hardAlpha"/>
<feOffset dy="4"/>
<feGaussianBlur stdDeviation="2"/>
<feComposite in2="hardAlpha" operator="out"/>
<feColorMatrix type="matrix" values="0 0 0 0 0 0 0 0 0 0 0 0 0 0 0 0 0 0 0.25 0"/>
<feBlend mode="normal" in2="BackgroundImageFix" result="effect1_dropShadow_15_42"/>
<feBlend mode="normal" in="SourceGraphic" in2="effect1_dropShadow_15_42" result="shape"/>
</filter>
</defs>
</svg>
