<svg width="308" height="85" viewBox="0 0 308 85" fill="none" xmlns="http://www.w3.org/2000/svg">
<g filter="url(#filter0_d_15_40)">
<path d="M4.58203 1.97632H29.0586C34.6107 1.97632 39.2995 2.82267 43.125 4.51538C46.9844 6.20809 49.9128 8.7133 51.9102 12.031C53.9414 15.3149 54.957 19.3604 54.957 24.1677C54.957 27.5531 54.263 30.6508 52.875 33.4607C51.5208 36.2367 49.5573 38.6065 46.9844 40.5701C44.4453 42.4998 41.3984 43.9386 37.8438 44.8865L35.1016 45.9529H12.0977L11.9961 37.9802H29.3633C32.8841 37.9802 35.8125 37.3708 38.1484 36.1521C40.4844 34.8995 42.2448 33.2237 43.4297 31.1248C44.6146 29.0258 45.207 26.7068 45.207 24.1677C45.207 21.324 44.6484 18.8357 43.5312 16.7029C42.4141 14.5701 40.6536 12.9281 38.25 11.7771C35.8802 10.5922 32.8164 9.99976 29.0586 9.99976H14.3828V75.9138H4.58203V1.97632ZM47.7969 75.9138L29.8203 42.3982L40.0273 42.3474L58.2578 75.3044V75.9138H47.7969ZM105.18 1.97632V75.9138H95.3789V1.97632H105.18ZM205.93 36.6091V41.281C205.93 46.8331 205.236 51.8097 203.848 56.2107C202.46 60.6117 200.462 64.3526 197.855 67.4333C195.249 70.5141 192.117 72.8669 188.461 74.4919C184.839 76.1169 180.776 76.9294 176.273 76.9294C171.906 76.9294 167.895 76.1169 164.238 74.4919C160.616 72.8669 157.467 70.5141 154.793 67.4333C152.152 64.3526 150.104 60.6117 148.648 56.2107C147.193 51.8097 146.465 46.8331 146.465 41.281V36.6091C146.465 31.057 147.176 26.0974 148.598 21.7302C150.053 17.3292 152.102 13.5883 154.742 10.5076C157.383 7.39299 160.514 5.02319 164.137 3.39819C167.793 1.77319 171.805 0.960693 176.172 0.960693C180.674 0.960693 184.737 1.77319 188.359 3.39819C192.016 5.02319 195.147 7.39299 197.754 10.5076C200.395 13.5883 202.409 17.3292 203.797 21.7302C205.219 26.0974 205.93 31.057 205.93 36.6091ZM196.23 41.281V36.5076C196.23 32.1065 195.773 28.2133 194.859 24.8279C193.979 21.4425 192.676 18.5987 190.949 16.2966C189.223 13.9945 187.107 12.2511 184.602 11.0662C182.13 9.88127 179.32 9.28882 176.172 9.28882C173.125 9.28882 170.366 9.88127 167.895 11.0662C165.457 12.2511 163.358 13.9945 161.598 16.2966C159.871 18.5987 158.534 21.4425 157.586 24.8279C156.638 28.2133 156.164 32.1065 156.164 36.5076V41.281C156.164 45.7159 156.638 49.643 157.586 53.0623C158.534 56.4477 159.888 59.3083 161.648 61.6443C163.443 63.9464 165.559 65.6899 167.996 66.8748C170.467 68.0597 173.227 68.6521 176.273 68.6521C179.456 68.6521 182.283 68.0597 184.754 66.8748C187.225 65.6899 189.307 63.9464 191 61.6443C192.727 59.3083 194.03 56.4477 194.91 53.0623C195.79 49.643 196.23 45.7159 196.23 41.281ZM303.48 1.97632V75.9138H293.629L256.406 18.8865V75.9138H246.605V1.97632H256.406L293.781 59.156V1.97632H303.48Z" fill="white"/>
</g>
<defs>
<filter id="filter0_d_15_40" x="0.582031" y="0.960693" width="306.898" height="83.9688" filterUnits="userSpaceOnUse" color-interpolation-filters="sRGB">
<feFlood flood-opacity="0" result="BackgroundImageFix"/>
<feColorMatrix in="SourceAlpha" type="matrix" values="0 0 0 0 0 0 0 0 0 0 0 0 0 0 0 0 0 0 127 0" result="hardAlpha"/>
<feOffset dy="4"/>
<feGaussianBlur stdDeviation="2"/>
<feComposite in2="hardAlpha" operator="out"/>
<feColorMatrix type="matrix" values="0 0 0 0 0 0 0 0 0 0 0 0 0 0 0 0 0 0 0.25 0"/>
<feBlend mode="normal" in2="BackgroundImageFix" result="effect1_dropShadow_15_40"/>
<feBlend mode="normal" in="SourceGraphic" in2="effect1_dropShadow_15_40" result="shape"/>
</filter>
</defs>
</svg>
