<svg width="205" height="107" viewBox="0 0 205 107" fill="none" xmlns="http://www.w3.org/2000/svg">
<g filter="url(#filter0_d_15_49)">
<path d="M8.80078 16.0088L18.2637 0.671875H21.9404V22H18.2637V6.64844L8.80078 22H5.13867V0.671875H8.80078V16.0088ZM32.4727 19.4805C33.0488 19.4805 33.5664 19.3682 34.0254 19.1436C34.4941 18.9092 34.8701 18.5869 35.1533 18.1768C35.4463 17.7666 35.6074 17.293 35.6367 16.7559H38.9619C38.9424 17.7812 38.6396 18.7139 38.0537 19.5537C37.4678 20.3936 36.6914 21.0625 35.7246 21.5605C34.7578 22.0488 33.6885 22.293 32.5166 22.293C31.3057 22.293 30.251 22.0879 29.3525 21.6777C28.4541 21.2578 27.707 20.6816 27.1113 19.9492C26.5156 19.2168 26.0664 18.3721 25.7637 17.415C25.4707 16.458 25.3242 15.4326 25.3242 14.3389V13.8262C25.3242 12.7324 25.4707 11.707 25.7637 10.75C26.0664 9.7832 26.5156 8.93359 27.1113 8.20117C27.707 7.46875 28.4541 6.89746 29.3525 6.4873C30.251 6.06738 31.3008 5.85742 32.502 5.85742C33.7715 5.85742 34.8848 6.11133 35.8418 6.61914C36.7988 7.11719 37.5508 7.81543 38.0977 8.71387C38.6543 9.60254 38.9424 10.6377 38.9619 11.8193H35.6367C35.6074 11.2334 35.4609 10.7061 35.1973 10.2373C34.9434 9.75879 34.582 9.37793 34.1133 9.09473C33.6543 8.81152 33.1025 8.66992 32.458 8.66992C31.7451 8.66992 31.1543 8.81641 30.6855 9.10938C30.2168 9.39258 29.8506 9.7832 29.5869 10.2812C29.3232 10.7695 29.1328 11.3213 29.0156 11.9365C28.9082 12.542 28.8545 13.1719 28.8545 13.8262V14.3389C28.8545 14.9932 28.9082 15.6279 29.0156 16.2432C29.123 16.8584 29.3086 17.4102 29.5723 17.8984C29.8457 18.377 30.2168 18.7627 30.6855 19.0557C31.1543 19.3389 31.75 19.4805 32.4727 19.4805ZM52.3066 6.15039V8.96289H44.4844V6.15039H52.3066ZM45.3193 6.15039V22H41.7891V6.15039H45.3193ZM55.0752 6.15039V22H51.5303V6.15039H55.0752ZM58.1367 14.251V13.9141C58.1367 12.7715 58.3027 11.7119 58.6348 10.7354C58.9668 9.74902 59.4453 8.89453 60.0703 8.17188C60.7051 7.43945 61.4766 6.87305 62.3848 6.47266C63.3027 6.0625 64.3379 5.85742 65.4902 5.85742C66.6523 5.85742 67.6875 6.0625 68.5957 6.47266C69.5137 6.87305 70.29 7.43945 70.9248 8.17188C71.5596 8.89453 72.043 9.74902 72.375 10.7354C72.707 11.7119 72.873 12.7715 72.873 13.9141V14.251C72.873 15.3936 72.707 16.4531 72.375 17.4297C72.043 18.4062 71.5596 19.2607 70.9248 19.9932C70.29 20.7158 69.5186 21.2822 68.6104 21.6924C67.7021 22.0928 66.6719 22.293 65.5195 22.293C64.3574 22.293 63.3174 22.0928 62.3994 21.6924C61.4912 21.2822 60.7197 20.7158 60.085 19.9932C59.4502 19.2607 58.9668 18.4062 58.6348 17.4297C58.3027 16.4531 58.1367 15.3936 58.1367 14.251ZM61.667 13.9141V14.251C61.667 14.9639 61.7402 15.6377 61.8867 16.2725C62.0332 16.9072 62.2627 17.4639 62.5752 17.9424C62.8877 18.4209 63.2881 18.7969 63.7764 19.0703C64.2646 19.3438 64.8457 19.4805 65.5195 19.4805C66.1738 19.4805 66.7402 19.3438 67.2188 19.0703C67.707 18.7969 68.1074 18.4209 68.4199 17.9424C68.7324 17.4639 68.9619 16.9072 69.1084 16.2725C69.2646 15.6377 69.3428 14.9639 69.3428 14.251V13.9141C69.3428 13.2109 69.2646 12.5469 69.1084 11.9219C68.9619 11.2871 68.7275 10.7256 68.4053 10.2373C68.0928 9.74902 67.6924 9.36816 67.2041 9.09473C66.7256 8.81152 66.1543 8.66992 65.4902 8.66992C64.8262 8.66992 64.25 8.81152 63.7617 9.09473C63.2832 9.36816 62.8877 9.74902 62.5752 10.2373C62.2627 10.7256 62.0332 11.2871 61.8867 11.9219C61.7402 12.5469 61.667 13.2109 61.667 13.9141ZM86.2471 6.15039V8.96289H78.5127V6.15039H86.2471ZM89.0156 6.15039V22H85.4854V6.15039H89.0156ZM77.6484 6.15039H81.1348L80.71 13.9873C80.6514 15.1494 80.5342 16.1748 80.3584 17.0635C80.1924 17.9424 79.9678 18.6992 79.6846 19.334C79.4014 19.959 79.0547 20.4668 78.6445 20.8574C78.2344 21.248 77.7559 21.5361 77.209 21.7217C76.6621 21.9072 76.0469 22 75.3633 22H74.2646L74.25 19.0996L74.8066 19.0557C75.168 19.0264 75.4805 18.9336 75.7441 18.7773C76.0078 18.6113 76.2324 18.377 76.418 18.0742C76.6133 17.7715 76.7695 17.3809 76.8867 16.9023C77.0137 16.4238 77.1113 15.8574 77.1797 15.2031C77.2578 14.5488 77.3164 13.7871 77.3555 12.918L77.6484 6.15039ZM95.3877 11.1895H100.061C101.428 11.1895 102.59 11.4189 103.547 11.8779C104.504 12.3369 105.231 12.9766 105.729 13.7969C106.237 14.6074 106.491 15.5352 106.491 16.5801C106.491 17.3516 106.35 18.0693 106.066 18.7334C105.783 19.3877 105.363 19.959 104.807 20.4473C104.26 20.9355 103.586 21.3164 102.785 21.5898C101.994 21.8633 101.086 22 100.061 22H93.0439V6.15039H96.5889V19.2021H100.061C100.764 19.2021 101.325 19.0801 101.745 18.8359C102.165 18.5918 102.468 18.2744 102.653 17.8838C102.849 17.4932 102.946 17.0781 102.946 16.6387C102.946 16.1895 102.849 15.7646 102.653 15.3643C102.468 14.9639 102.165 14.6367 101.745 14.3828C101.325 14.1289 100.764 14.002 100.061 14.002H95.3877V11.1895ZM115.881 14.4268H112.834V12.6396H115.295C115.92 12.6396 116.418 12.5566 116.789 12.3906C117.17 12.2246 117.438 11.9951 117.595 11.7021C117.761 11.3994 117.844 11.0479 117.844 10.6475C117.844 10.2959 117.761 9.96387 117.595 9.65137C117.438 9.3291 117.17 9.06543 116.789 8.86035C116.408 8.65527 115.891 8.55273 115.236 8.55273C114.699 8.55273 114.216 8.64062 113.786 8.81641C113.366 8.99219 113.034 9.23633 112.79 9.54883C112.546 9.86133 112.424 10.2227 112.424 10.6328H108.894C108.894 9.64648 109.172 8.79688 109.729 8.08398C110.295 7.37109 111.052 6.82422 111.999 6.44336C112.946 6.0625 113.986 5.87207 115.119 5.87207C116.086 5.87207 116.955 5.97461 117.727 6.17969C118.498 6.375 119.152 6.66797 119.689 7.05859C120.236 7.43945 120.651 7.91797 120.935 8.49414C121.228 9.06055 121.374 9.71973 121.374 10.4717C121.374 11.0088 121.247 11.5166 120.993 11.9951C120.739 12.4736 120.373 12.8984 119.895 13.2695C119.416 13.6309 118.835 13.9141 118.151 14.1191C117.478 14.3242 116.721 14.4268 115.881 14.4268ZM112.834 13.4014H115.881C116.818 13.4014 117.648 13.4941 118.371 13.6797C119.094 13.8555 119.699 14.1191 120.188 14.4707C120.676 14.8223 121.042 15.2568 121.286 15.7744C121.54 16.2822 121.667 16.8682 121.667 17.5322C121.667 18.2744 121.506 18.9434 121.184 19.5391C120.871 20.125 120.422 20.623 119.836 21.0332C119.26 21.4434 118.571 21.7559 117.771 21.9707C116.97 22.1855 116.086 22.293 115.119 22.293C114.064 22.293 113.039 22.1172 112.043 21.7656C111.057 21.4141 110.241 20.8721 109.597 20.1396C108.962 19.3975 108.645 18.4551 108.645 17.3125H112.175C112.175 17.7129 112.297 18.0889 112.541 18.4404C112.785 18.792 113.137 19.0801 113.596 19.3047C114.055 19.5195 114.606 19.627 115.251 19.627C115.915 19.627 116.457 19.5244 116.877 19.3193C117.297 19.1045 117.609 18.8262 117.814 18.4844C118.02 18.1328 118.122 17.7617 118.122 17.3711C118.122 16.8438 118.02 16.4189 117.814 16.0967C117.609 15.7744 117.297 15.54 116.877 15.3936C116.457 15.2373 115.93 15.1592 115.295 15.1592H112.834V13.4014ZM129.27 20.2715L133.576 6.15039H137.355L130.998 24.417C130.852 24.8076 130.661 25.2324 130.427 25.6914C130.192 26.1504 129.885 26.585 129.504 26.9951C129.133 27.415 128.669 27.752 128.112 28.0059C127.556 28.2695 126.882 28.4014 126.091 28.4014C125.778 28.4014 125.476 28.3721 125.183 28.3135C124.899 28.2646 124.631 28.2109 124.377 28.1523L124.362 25.457C124.46 25.4668 124.577 25.4766 124.714 25.4863C124.86 25.4961 124.978 25.501 125.065 25.501C125.651 25.501 126.14 25.4277 126.53 25.2812C126.921 25.1445 127.238 24.9199 127.482 24.6074C127.736 24.2949 127.951 23.875 128.127 23.3477L129.27 20.2715ZM126.838 6.15039L130.603 18.0156L131.232 21.7363L128.786 22.3662L123.029 6.15039H126.838ZM143.024 16.8438L149.25 6.15039H152.78V22H149.25V11.292L143.024 22H139.494V6.15039H143.024V16.8438ZM148.312 0.0566406H150.935C150.935 0.867187 150.739 1.58496 150.349 2.20996C149.968 2.8252 149.421 3.30859 148.708 3.66016C148.005 4.01172 147.165 4.1875 146.188 4.1875C144.714 4.1875 143.547 3.80664 142.688 3.04492C141.838 2.27344 141.413 1.27734 141.413 0.0566406H144.035C144.035 0.603516 144.196 1.08691 144.519 1.50684C144.851 1.91699 145.407 2.12207 146.188 2.12207C146.96 2.12207 147.507 1.91699 147.829 1.50684C148.151 1.08691 148.312 0.603516 148.312 0.0566406ZM163.869 6.15039V22H160.324V6.15039H163.869ZM169.069 6.15039V8.93359H155.212V6.15039H169.069ZM177.331 22.293C176.159 22.293 175.1 22.1025 174.152 21.7217C173.215 21.3311 172.414 20.7891 171.75 20.0957C171.096 19.4023 170.593 18.5869 170.241 17.6494C169.89 16.7119 169.714 15.7012 169.714 14.6172V14.0312C169.714 12.791 169.895 11.668 170.256 10.6621C170.617 9.65625 171.12 8.79688 171.765 8.08398C172.409 7.36133 173.171 6.80957 174.05 6.42871C174.929 6.04785 175.881 5.85742 176.906 5.85742C178.039 5.85742 179.03 6.04785 179.88 6.42871C180.729 6.80957 181.433 7.34668 181.989 8.04004C182.556 8.72363 182.976 9.53906 183.249 10.4863C183.532 11.4336 183.674 12.4785 183.674 13.6211V15.1299H171.428V12.5957H180.188V12.3174C180.168 11.6826 180.041 11.0869 179.807 10.5303C179.582 9.97363 179.235 9.52441 178.767 9.18262C178.298 8.84082 177.673 8.66992 176.892 8.66992C176.306 8.66992 175.783 8.79688 175.324 9.05078C174.875 9.29492 174.499 9.65137 174.196 10.1201C173.894 10.5889 173.659 11.1553 173.493 11.8193C173.337 12.4736 173.259 13.2109 173.259 14.0312V14.6172C173.259 15.3105 173.352 15.9551 173.537 16.5508C173.732 17.1367 174.016 17.6494 174.387 18.0889C174.758 18.5283 175.207 18.875 175.734 19.1289C176.262 19.373 176.862 19.4951 177.536 19.4951C178.386 19.4951 179.143 19.3242 179.807 18.9824C180.471 18.6406 181.047 18.1572 181.535 17.5322L183.396 19.334C183.054 19.832 182.609 20.3105 182.062 20.7695C181.516 21.2188 180.847 21.585 180.056 21.8682C179.274 22.1514 178.366 22.293 177.331 22.293ZM10.5 43.6699C9.95312 43.6699 9.4502 43.7871 8.99121 44.0215C8.54199 44.2461 8.18066 44.5635 7.90723 44.9736C7.64355 45.374 7.51172 45.8477 7.51172 46.3945H4.17188C4.17188 45.3594 4.45996 44.4268 5.03613 43.5967C5.62207 42.7568 6.39355 42.0928 7.35059 41.6045C8.30762 41.1064 9.35742 40.8574 10.5 40.8574C11.6621 40.8574 12.6875 41.0674 13.5762 41.4873C14.4648 41.8975 15.2119 42.4688 15.8174 43.2012C16.4229 43.9336 16.877 44.7832 17.1797 45.75C17.4922 46.707 17.6484 47.7324 17.6484 48.8262V49.3389C17.6484 50.4326 17.4922 51.458 17.1797 52.415C16.8672 53.3721 16.4082 54.2217 15.8027 54.9639C15.1973 55.6963 14.4502 56.2725 13.5615 56.6924C12.6826 57.1025 11.667 57.3076 10.5146 57.3076C9.28418 57.3076 8.19043 57.0537 7.2334 56.5459C6.27637 56.0381 5.52441 55.3398 4.97754 54.4512C4.44043 53.5527 4.17188 52.5127 4.17188 51.3311H7.51172C7.51172 51.9268 7.63867 52.4639 7.89258 52.9424C8.14648 53.4209 8.49805 53.8018 8.94727 54.085C9.39648 54.3584 9.91895 54.4951 10.5146 54.4951C11.1689 54.4951 11.7256 54.3486 12.1846 54.0557C12.6436 53.7627 13.0146 53.3721 13.2979 52.8838C13.5811 52.3955 13.7861 51.8438 13.9131 51.2285C14.04 50.6035 14.1035 49.9736 14.1035 49.3389V48.8262C14.1035 48.1719 14.04 47.5371 13.9131 46.9219C13.7861 46.3066 13.5811 45.7549 13.2979 45.2666C13.0244 44.7783 12.6533 44.3926 12.1846 44.1094C11.7256 43.8164 11.1641 43.6699 10.5 43.6699ZM15.4512 47.7715V50.1592H9.02051V47.7715H15.4512ZM39.4893 49.2656V49.5732C39.4893 50.6963 39.3623 51.7314 39.1084 52.6787C38.8643 53.6162 38.498 54.4316 38.0098 55.125C37.5215 55.8184 36.916 56.3555 36.1934 56.7363C35.4805 57.1172 34.6504 57.3076 33.7031 57.3076C32.873 57.3076 32.1504 57.166 31.5352 56.8828C30.9199 56.5996 30.4023 56.2041 29.9824 55.6963C29.5625 55.1787 29.2256 54.5732 28.9717 53.8799C28.7178 53.1768 28.5322 52.4053 28.415 51.5654V46.9805C28.5322 46.082 28.7129 45.2617 28.957 44.5195C29.2109 43.7676 29.5479 43.1182 29.9678 42.5713C30.3975 42.0244 30.915 41.6045 31.5205 41.3115C32.126 41.0088 32.8438 40.8574 33.6738 40.8574C34.4355 40.8574 35.124 40.9941 35.7393 41.2676C36.3545 41.5312 36.8965 41.9121 37.3652 42.4102C37.834 42.8984 38.2246 43.4893 38.5371 44.1826C38.8496 44.8662 39.084 45.6377 39.2402 46.4971C39.4062 47.3564 39.4893 48.2793 39.4893 49.2656ZM35.959 49.5732V49.2656C35.959 48.6504 35.9199 48.0645 35.8418 47.5078C35.7637 46.9512 35.6416 46.4434 35.4756 45.9844C35.3193 45.5156 35.1143 45.1104 34.8604 44.7686C34.6064 44.417 34.2988 44.1484 33.9375 43.9629C33.5859 43.7676 33.1758 43.6699 32.707 43.6699C32.0723 43.6699 31.5449 43.7773 31.125 43.9922C30.7148 44.1973 30.4023 44.4902 30.1875 44.8711C29.9824 45.2422 29.8506 45.6719 29.792 46.1602V52.4004C29.8604 52.8105 30.002 53.1719 30.2168 53.4844C30.4414 53.7969 30.7588 54.0459 31.1689 54.2314C31.5791 54.4072 32.1016 54.4951 32.7363 54.4951C33.3223 54.4951 33.8154 54.373 34.2158 54.1289C34.626 53.875 34.958 53.5234 35.2119 53.0742C35.4756 52.625 35.666 52.1025 35.7832 51.5068C35.9004 50.9111 35.959 50.2666 35.959 49.5732ZM20.0654 49.5732V49.2656C20.0654 48.2793 20.1436 47.3564 20.2998 46.4971C20.4561 45.6377 20.6904 44.8662 21.0029 44.1826C21.3252 43.4893 21.7207 42.8984 22.1895 42.4102C22.6582 41.9121 23.2002 41.5312 23.8154 41.2676C24.4307 40.9941 25.1191 40.8574 25.8809 40.8574C26.7012 40.8574 27.4092 41.0088 28.0049 41.3115C28.6006 41.6045 29.1035 42.0244 29.5137 42.5713C29.9336 43.1182 30.2656 43.7676 30.5098 44.5195C30.7637 45.2617 30.9492 46.082 31.0664 46.9805V51.3896C30.959 52.249 30.7783 53.04 30.5244 53.7627C30.2705 54.4854 29.9385 55.1104 29.5283 55.6377C29.1182 56.165 28.6104 56.5752 28.0049 56.8682C27.3994 57.1611 26.6816 57.3076 25.8516 57.3076C24.9141 57.3076 24.084 57.1172 23.3613 56.7363C22.6387 56.3555 22.0332 55.8184 21.5449 55.125C21.0566 54.4316 20.6855 53.6162 20.4316 52.6787C20.1875 51.7314 20.0654 50.6963 20.0654 49.5732ZM23.5957 49.2656V49.5732C23.5957 50.2666 23.6494 50.9111 23.7568 51.5068C23.874 52.1025 24.0547 52.625 24.2988 53.0742C24.543 53.5137 24.8652 53.8604 25.2656 54.1143C25.666 54.3682 26.1592 54.4951 26.7451 54.4951C27.3896 54.4951 27.917 54.3975 28.3271 54.2021C28.7373 54.0068 29.0498 53.7383 29.2646 53.3965C29.4893 53.0547 29.6357 52.6641 29.7041 52.2246V46.1602C29.6455 45.6719 29.5088 45.2422 29.2939 44.8711C29.0791 44.4902 28.7666 44.1973 28.3564 43.9922C27.9463 43.7773 27.4189 43.6699 26.7744 43.6699C26.1885 43.6699 25.6904 43.8164 25.2803 44.1094C24.8799 44.4023 24.5527 44.8076 24.2988 45.3252C24.0547 45.833 23.874 46.4287 23.7568 47.1123C23.6494 47.7861 23.5957 48.5039 23.5957 49.2656ZM27.9316 63.0938V34.5H31.4766V63.0938H27.9316ZM61.3447 49.2656V49.5732C61.3447 50.6963 61.2178 51.7314 60.9639 52.6787C60.7197 53.6162 60.3535 54.4316 59.8652 55.125C59.377 55.8184 58.7715 56.3555 58.0488 56.7363C57.3359 57.1172 56.5059 57.3076 55.5586 57.3076C54.7285 57.3076 54.0059 57.166 53.3906 56.8828C52.7754 56.5996 52.2578 56.2041 51.8379 55.6963C51.418 55.1787 51.0811 54.5732 50.8271 53.8799C50.5732 53.1768 50.3877 52.4053 50.2705 51.5654V46.9805C50.3877 46.082 50.5684 45.2617 50.8125 44.5195C51.0664 43.7676 51.4033 43.1182 51.8232 42.5713C52.2529 42.0244 52.7705 41.6045 53.376 41.3115C53.9814 41.0088 54.6992 40.8574 55.5293 40.8574C56.291 40.8574 56.9795 40.9941 57.5947 41.2676C58.21 41.5312 58.752 41.9121 59.2207 42.4102C59.6895 42.8984 60.0801 43.4893 60.3926 44.1826C60.7051 44.8662 60.9395 45.6377 61.0957 46.4971C61.2617 47.3564 61.3447 48.2793 61.3447 49.2656ZM57.8145 49.5732V49.2656C57.8145 48.6504 57.7754 48.0645 57.6973 47.5078C57.6191 46.9512 57.4971 46.4434 57.3311 45.9844C57.1748 45.5156 56.9697 45.1104 56.7158 44.7686C56.4619 44.417 56.1543 44.1484 55.793 43.9629C55.4414 43.7676 55.0312 43.6699 54.5625 43.6699C53.9277 43.6699 53.4004 43.7773 52.9805 43.9922C52.5703 44.1973 52.2578 44.4902 52.043 44.8711C51.8379 45.2422 51.7061 45.6719 51.6475 46.1602V52.4004C51.7158 52.8105 51.8574 53.1719 52.0723 53.4844C52.2969 53.7969 52.6143 54.0459 53.0244 54.2314C53.4346 54.4072 53.957 54.4951 54.5918 54.4951C55.1777 54.4951 55.6709 54.373 56.0713 54.1289C56.4814 53.875 56.8135 53.5234 57.0674 53.0742C57.3311 52.625 57.5215 52.1025 57.6387 51.5068C57.7559 50.9111 57.8145 50.2666 57.8145 49.5732ZM41.9209 49.5732V49.2656C41.9209 48.2793 41.999 47.3564 42.1553 46.4971C42.3115 45.6377 42.5459 44.8662 42.8584 44.1826C43.1807 43.4893 43.5762 42.8984 44.0449 42.4102C44.5137 41.9121 45.0557 41.5312 45.6709 41.2676C46.2861 40.9941 46.9746 40.8574 47.7363 40.8574C48.5566 40.8574 49.2646 41.0088 49.8604 41.3115C50.4561 41.6045 50.959 42.0244 51.3691 42.5713C51.7891 43.1182 52.1211 43.7676 52.3652 44.5195C52.6191 45.2617 52.8047 46.082 52.9219 46.9805V51.3896C52.8145 52.249 52.6338 53.04 52.3799 53.7627C52.126 54.4854 51.7939 55.1104 51.3838 55.6377C50.9736 56.165 50.4658 56.5752 49.8604 56.8682C49.2549 57.1611 48.5371 57.3076 47.707 57.3076C46.7695 57.3076 45.9395 57.1172 45.2168 56.7363C44.4941 56.3555 43.8887 55.8184 43.4004 55.125C42.9121 54.4316 42.541 53.6162 42.2871 52.6787C42.043 51.7314 41.9209 50.6963 41.9209 49.5732ZM45.4512 49.2656V49.5732C45.4512 50.2666 45.5049 50.9111 45.6123 51.5068C45.7295 52.1025 45.9102 52.625 46.1543 53.0742C46.3984 53.5137 46.7207 53.8604 47.1211 54.1143C47.5215 54.3682 48.0146 54.4951 48.6006 54.4951C49.2451 54.4951 49.7725 54.3975 50.1826 54.2021C50.5928 54.0068 50.9053 53.7383 51.1201 53.3965C51.3447 53.0547 51.4912 52.6641 51.5596 52.2246V46.1602C51.501 45.6719 51.3643 45.2422 51.1494 44.8711C50.9346 44.4902 50.6221 44.1973 50.2119 43.9922C49.8018 43.7773 49.2744 43.6699 48.6299 43.6699C48.0439 43.6699 47.5459 43.8164 47.1357 44.1094C46.7354 44.4023 46.4082 44.8076 46.1543 45.3252C45.9102 45.833 45.7295 46.4287 45.6123 47.1123C45.5049 47.7861 45.4512 48.5039 45.4512 49.2656ZM49.7871 63.0938V34.5H53.332V63.0938H49.7871ZM71.3643 57.293C70.1924 57.293 69.1328 57.1025 68.1855 56.7217C67.248 56.3311 66.4473 55.7891 65.7832 55.0957C65.1289 54.4023 64.626 53.5869 64.2744 52.6494C63.9229 51.7119 63.7471 50.7012 63.7471 49.6172V49.0312C63.7471 47.791 63.9277 46.668 64.2891 45.6621C64.6504 44.6562 65.1533 43.7969 65.7979 43.084C66.4424 42.3613 67.2041 41.8096 68.083 41.4287C68.9619 41.0479 69.9141 40.8574 70.9395 40.8574C72.0723 40.8574 73.0635 41.0479 73.9131 41.4287C74.7627 41.8096 75.4658 42.3467 76.0225 43.04C76.5889 43.7236 77.0088 44.5391 77.2822 45.4863C77.5654 46.4336 77.707 47.4785 77.707 48.6211V50.1299H65.4609V47.5957H74.2207V47.3174C74.2012 46.6826 74.0742 46.0869 73.8398 45.5303C73.6152 44.9736 73.2686 44.5244 72.7998 44.1826C72.3311 43.8408 71.7061 43.6699 70.9248 43.6699C70.3389 43.6699 69.8164 43.7969 69.3574 44.0508C68.9082 44.2949 68.5322 44.6514 68.2295 45.1201C67.9268 45.5889 67.6924 46.1553 67.5264 46.8193C67.3701 47.4736 67.292 48.2109 67.292 49.0312V49.6172C67.292 50.3105 67.3848 50.9551 67.5703 51.5508C67.7656 52.1367 68.0488 52.6494 68.4199 53.0889C68.791 53.5283 69.2402 53.875 69.7676 54.1289C70.2949 54.373 70.8955 54.4951 71.5693 54.4951C72.4189 54.4951 73.1758 54.3242 73.8398 53.9824C74.5039 53.6406 75.0801 53.1572 75.5684 52.5322L77.4287 54.334C77.0869 54.832 76.6426 55.3105 76.0957 55.7695C75.5488 56.2188 74.8799 56.585 74.0889 56.8682C73.3076 57.1514 72.3994 57.293 71.3643 57.293ZM84.2695 41.1504V57H80.7393V41.1504H84.2695ZM94.6113 41.1504L87.4775 50.6865H83.4492L82.9805 47.4932H85.9248L90.2021 41.1504H94.6113ZM90.4805 57L85.7051 50.0859L88.4883 48.0791L95.124 57H90.4805ZM104.396 41.1504V57H100.852V41.1504H104.396ZM109.597 41.1504V43.9336H95.7393V41.1504H109.597ZM115.603 51.8438L121.828 41.1504H125.358V57H121.828V46.292L115.603 57H112.072V41.1504H115.603V51.8438ZM136.799 50.2178H131.73L131.701 47.7275H135.861C136.545 47.7275 137.106 47.6592 137.546 47.5225C137.995 47.3857 138.327 47.1807 138.542 46.9072C138.757 46.624 138.864 46.2822 138.864 45.8818C138.864 45.5498 138.801 45.2617 138.674 45.0176C138.547 44.7637 138.352 44.5586 138.088 44.4023C137.834 44.2363 137.512 44.1191 137.121 44.0508C136.74 43.9727 136.296 43.9336 135.788 43.9336H132.902V57H129.372V41.1504H135.788C136.804 41.1504 137.717 41.2383 138.527 41.4141C139.348 41.5898 140.046 41.8584 140.622 42.2197C141.198 42.5811 141.638 43.04 141.94 43.5967C142.253 44.1436 142.409 44.7881 142.409 45.5303C142.409 46.0186 142.302 46.4775 142.087 46.9072C141.882 47.3369 141.574 47.7178 141.164 48.0498C140.754 48.3818 140.251 48.6553 139.655 48.8701C139.06 49.0752 138.376 49.2021 137.604 49.251L136.799 50.2178ZM136.799 57H130.705L132.111 54.2168H136.799C137.424 54.2168 137.941 54.1387 138.352 53.9824C138.762 53.8262 139.064 53.6016 139.26 53.3086C139.465 53.0059 139.567 52.6494 139.567 52.2393C139.567 51.8193 139.47 51.458 139.274 51.1553C139.079 50.8525 138.776 50.623 138.366 50.4668C137.966 50.3008 137.443 50.2178 136.799 50.2178H132.771L132.8 47.7275H137.59L138.601 48.6943C139.606 48.7627 140.441 48.9775 141.105 49.3389C141.77 49.7002 142.268 50.1543 142.6 50.7012C142.932 51.248 143.098 51.8438 143.098 52.4883C143.098 53.2305 142.956 53.8848 142.673 54.4512C142.399 55.0176 141.989 55.4912 141.442 55.8721C140.905 56.2432 140.246 56.5264 139.465 56.7217C138.684 56.9072 137.795 57 136.799 57ZM156.97 47.7715V50.5547H148.767V47.7715H156.97ZM149.792 41.1504V57H146.262V41.1504H149.792ZM159.519 41.1504V57H155.988V41.1504H159.519ZM165.905 46.1895H170.578C171.945 46.1895 173.107 46.4189 174.064 46.8779C175.021 47.3369 175.749 47.9766 176.247 48.7969C176.755 49.6074 177.009 50.5352 177.009 51.5801C177.009 52.3516 176.867 53.0693 176.584 53.7334C176.301 54.3877 175.881 54.959 175.324 55.4473C174.777 55.9355 174.104 56.3164 173.303 56.5898C172.512 56.8633 171.604 57 170.578 57H163.562V41.1504H167.106V54.2021H170.578C171.281 54.2021 171.843 54.0801 172.263 53.8359C172.683 53.5918 172.985 53.2744 173.171 52.8838C173.366 52.4932 173.464 52.0781 173.464 51.6387C173.464 51.1895 173.366 50.7646 173.171 50.3643C172.985 49.9639 172.683 49.6367 172.263 49.3828C171.843 49.1289 171.281 49.002 170.578 49.002H165.905V46.1895ZM183.249 41.1504V57H179.719V41.1504H183.249ZM194.411 57.293C193.239 57.293 192.18 57.1025 191.232 56.7217C190.295 56.3311 189.494 55.7891 188.83 55.0957C188.176 54.4023 187.673 53.5869 187.321 52.6494C186.97 51.7119 186.794 50.7012 186.794 49.6172V49.0312C186.794 47.791 186.975 46.668 187.336 45.6621C187.697 44.6562 188.2 43.7969 188.845 43.084C189.489 42.3613 190.251 41.8096 191.13 41.4287C192.009 41.0479 192.961 40.8574 193.986 40.8574C195.119 40.8574 196.11 41.0479 196.96 41.4287C197.81 41.8096 198.513 42.3467 199.069 43.04C199.636 43.7236 200.056 44.5391 200.329 45.4863C200.612 46.4336 200.754 47.4785 200.754 48.6211V50.1299H188.508V47.5957H197.268V47.3174C197.248 46.6826 197.121 46.0869 196.887 45.5303C196.662 44.9736 196.315 44.5244 195.847 44.1826C195.378 43.8408 194.753 43.6699 193.972 43.6699C193.386 43.6699 192.863 43.7969 192.404 44.0508C191.955 44.2949 191.579 44.6514 191.276 45.1201C190.974 45.5889 190.739 46.1553 190.573 46.8193C190.417 47.4736 190.339 48.2109 190.339 49.0312V49.6172C190.339 50.3105 190.432 50.9551 190.617 51.5508C190.812 52.1367 191.096 52.6494 191.467 53.0889C191.838 53.5283 192.287 53.875 192.814 54.1289C193.342 54.373 193.942 54.4951 194.616 54.4951C195.466 54.4951 196.223 54.3242 196.887 53.9824C197.551 53.6406 198.127 53.1572 198.615 52.5322L200.476 54.334C200.134 54.832 199.689 55.3105 199.143 55.7695C198.596 56.2188 197.927 56.585 197.136 56.8682C196.354 57.1514 195.446 57.293 194.411 57.293ZM8.46387 86.8438L14.6895 76.1504H18.2197V92H14.6895V81.292L8.46387 92H4.93359V76.1504H8.46387V86.8438ZM32.7803 82.7715V85.5547H24.5771V82.7715H32.7803ZM25.6025 76.1504V92H22.0723V76.1504H25.6025ZM35.3291 76.1504V92H31.7988V76.1504H35.3291ZM45.5684 89.4805C46.1445 89.4805 46.6621 89.3682 47.1211 89.1436C47.5898 88.9092 47.9658 88.5869 48.249 88.1768C48.542 87.7666 48.7031 87.293 48.7324 86.7559H52.0576C52.0381 87.7812 51.7354 88.7139 51.1494 89.5537C50.5635 90.3936 49.7871 91.0625 48.8203 91.5605C47.8535 92.0488 46.7842 92.293 45.6123 92.293C44.4014 92.293 43.3467 92.0879 42.4482 91.6777C41.5498 91.2578 40.8027 90.6816 40.207 89.9492C39.6113 89.2168 39.1621 88.3721 38.8594 87.415C38.5664 86.458 38.4199 85.4326 38.4199 84.3389V83.8262C38.4199 82.7324 38.5664 81.707 38.8594 80.75C39.1621 79.7832 39.6113 78.9336 40.207 78.2012C40.8027 77.4688 41.5498 76.8975 42.4482 76.4873C43.3467 76.0674 44.3965 75.8574 45.5977 75.8574C46.8672 75.8574 47.9805 76.1113 48.9375 76.6191C49.8945 77.1172 50.6465 77.8154 51.1934 78.7139C51.75 79.6025 52.0381 80.6377 52.0576 81.8193H48.7324C48.7031 81.2334 48.5566 80.7061 48.293 80.2373C48.0391 79.7588 47.6777 79.3779 47.209 79.0947C46.75 78.8115 46.1982 78.6699 45.5537 78.6699C44.8408 78.6699 44.25 78.8164 43.7812 79.1094C43.3125 79.3926 42.9463 79.7832 42.6826 80.2812C42.4189 80.7695 42.2285 81.3213 42.1113 81.9365C42.0039 82.542 41.9502 83.1719 41.9502 83.8262V84.3389C41.9502 84.9932 42.0039 85.6279 42.1113 86.2432C42.2188 86.8584 42.4043 87.4102 42.668 87.8984C42.9414 88.377 43.3125 88.7627 43.7812 89.0557C44.25 89.3389 44.8457 89.4805 45.5684 89.4805ZM62.1211 76.1504V92H58.5762V76.1504H62.1211ZM67.3213 76.1504V78.9336H53.4639V76.1504H67.3213ZM73.2246 79.1973V98.0938H69.6943V76.1504H72.9463L73.2246 79.1973ZM83.5518 83.9287V84.2363C83.5518 85.3887 83.415 86.458 83.1416 87.4443C82.8779 88.4209 82.4824 89.2754 81.9551 90.0078C81.4375 90.7305 80.7979 91.292 80.0361 91.6924C79.2744 92.0928 78.3955 92.293 77.3994 92.293C76.4131 92.293 75.5488 92.1123 74.8066 91.751C74.0742 91.3799 73.4541 90.8574 72.9463 90.1836C72.4385 89.5098 72.0283 88.7188 71.7158 87.8105C71.4131 86.8926 71.1982 85.8867 71.0713 84.793V83.6064C71.1982 82.4443 71.4131 81.3896 71.7158 80.4424C72.0283 79.4951 72.4385 78.6797 72.9463 77.9961C73.4541 77.3125 74.0742 76.7852 74.8066 76.4141C75.5391 76.043 76.3936 75.8574 77.3701 75.8574C78.3662 75.8574 79.25 76.0527 80.0215 76.4434C80.793 76.8242 81.4424 77.3711 81.9697 78.084C82.4971 78.7871 82.8926 79.6367 83.1562 80.6328C83.4199 81.6191 83.5518 82.7178 83.5518 83.9287ZM80.0215 84.2363V83.9287C80.0215 83.1963 79.9531 82.5176 79.8164 81.8926C79.6797 81.2578 79.4648 80.7012 79.1719 80.2227C78.8789 79.7441 78.5029 79.373 78.0439 79.1094C77.5947 78.8359 77.0527 78.6992 76.418 78.6992C75.793 78.6992 75.2559 78.8066 74.8066 79.0215C74.3574 79.2266 73.9814 79.5146 73.6787 79.8857C73.376 80.2568 73.1416 80.6914 72.9756 81.1895C72.8096 81.6777 72.6924 82.21 72.624 82.7861V85.6279C72.7412 86.3311 72.9414 86.9756 73.2246 87.5615C73.5078 88.1475 73.9082 88.6162 74.4258 88.9678C74.9531 89.3096 75.627 89.4805 76.4473 89.4805C77.082 89.4805 77.624 89.3438 78.0732 89.0703C78.5225 88.7969 78.8887 88.4209 79.1719 87.9424C79.4648 87.4541 79.6797 86.8926 79.8164 86.2578C79.9531 85.623 80.0215 84.9492 80.0215 84.2363ZM90.9785 90.2715L95.2852 76.1504H99.0645L92.707 94.417C92.5605 94.8076 92.3701 95.2324 92.1357 95.6914C91.9014 96.1504 91.5938 96.585 91.2129 96.9951C90.8418 97.415 90.3779 97.752 89.8213 98.0059C89.2646 98.2695 88.5908 98.4014 87.7998 98.4014C87.4873 98.4014 87.1846 98.3721 86.8916 98.3135C86.6084 98.2646 86.3398 98.2109 86.0859 98.1523L86.0713 95.457C86.1689 95.4668 86.2861 95.4766 86.4229 95.4863C86.5693 95.4961 86.6865 95.501 86.7744 95.501C87.3604 95.501 87.8486 95.4277 88.2393 95.2812C88.6299 95.1445 88.9473 94.9199 89.1914 94.6074C89.4453 94.2949 89.6602 93.875 89.8359 93.3477L90.9785 90.2715ZM88.5469 76.1504L92.3115 88.0156L92.9414 91.7363L90.4951 92.3662L84.7383 76.1504H88.5469ZM110.505 87.7227L115.222 76.1504H118.283L111.706 92H109.304L102.741 76.1504H105.803L110.505 87.7227ZM104.895 76.1504V92H101.364V76.1504H104.895ZM116.115 92V76.1504H119.66V92H116.115ZM130.603 92.293C129.431 92.293 128.371 92.1025 127.424 91.7217C126.486 91.3311 125.686 90.7891 125.021 90.0957C124.367 89.4023 123.864 88.5869 123.513 87.6494C123.161 86.7119 122.985 85.7012 122.985 84.6172V84.0312C122.985 82.791 123.166 81.668 123.527 80.6621C123.889 79.6562 124.392 78.7969 125.036 78.084C125.681 77.3613 126.442 76.8096 127.321 76.4287C128.2 76.0479 129.152 75.8574 130.178 75.8574C131.311 75.8574 132.302 76.0479 133.151 76.4287C134.001 76.8096 134.704 77.3467 135.261 78.04C135.827 78.7236 136.247 79.5391 136.521 80.4863C136.804 81.4336 136.945 82.4785 136.945 83.6211V85.1299H124.699V82.5957H133.459V82.3174C133.439 81.6826 133.312 81.0869 133.078 80.5303C132.854 79.9736 132.507 79.5244 132.038 79.1826C131.569 78.8408 130.944 78.6699 130.163 78.6699C129.577 78.6699 129.055 78.7969 128.596 79.0508C128.146 79.2949 127.771 79.6514 127.468 80.1201C127.165 80.5889 126.931 81.1553 126.765 81.8193C126.608 82.4736 126.53 83.2109 126.53 84.0312V84.6172C126.53 85.3105 126.623 85.9551 126.809 86.5508C127.004 87.1367 127.287 87.6494 127.658 88.0889C128.029 88.5283 128.479 88.875 129.006 89.1289C129.533 89.373 130.134 89.4951 130.808 89.4951C131.657 89.4951 132.414 89.3242 133.078 88.9824C133.742 88.6406 134.318 88.1572 134.807 87.5322L136.667 89.334C136.325 89.832 135.881 90.3105 135.334 90.7695C134.787 91.2188 134.118 91.585 133.327 91.8682C132.546 92.1514 131.638 92.293 130.603 92.293ZM150.524 82.7715V85.5547H142.321V82.7715H150.524ZM143.347 76.1504V92H139.816V76.1504H143.347ZM153.073 76.1504V92H149.543V76.1504H153.073ZM164.191 76.1504V92H160.646V76.1504H164.191ZM169.392 76.1504V78.9336H155.534V76.1504H169.392ZM174.372 81.1895H179.045C180.412 81.1895 181.574 81.4189 182.531 81.8779C183.488 82.3369 184.216 82.9766 184.714 83.7969C185.222 84.6074 185.476 85.5352 185.476 86.5801C185.476 87.3516 185.334 88.0693 185.051 88.7334C184.768 89.3877 184.348 89.959 183.791 90.4473C183.244 90.9355 182.57 91.3164 181.77 91.5898C180.979 91.8633 180.07 92 179.045 92H172.028V76.1504H175.573V89.2021H179.045C179.748 89.2021 180.31 89.0801 180.729 88.8359C181.149 88.5918 181.452 88.2744 181.638 87.8838C181.833 87.4932 181.931 87.0781 181.931 86.6387C181.931 86.1895 181.833 85.7646 181.638 85.3643C181.452 84.9639 181.149 84.6367 180.729 84.3828C180.31 84.1289 179.748 84.002 179.045 84.002H174.372V81.1895ZM191.716 76.1504V92H188.186V76.1504H191.716Z" fill="white"/>
</g>
<defs>
<filter id="filter0_d_15_49" x="0.171875" y="0.0566406" width="204.582" height="106.345" filterUnits="userSpaceOnUse" color-interpolation-filters="sRGB">
<feFlood flood-opacity="0" result="BackgroundImageFix"/>
<feColorMatrix in="SourceAlpha" type="matrix" values="0 0 0 0 0 0 0 0 0 0 0 0 0 0 0 0 0 0 127 0" result="hardAlpha"/>
<feOffset dy="4"/>
<feGaussianBlur stdDeviation="2"/>
<feComposite in2="hardAlpha" operator="out"/>
<feColorMatrix type="matrix" values="0 0 0 0 0 0 0 0 0 0 0 0 0 0 0 0 0 0 0.25 0"/>
<feBlend mode="normal" in2="BackgroundImageFix" result="effect1_dropShadow_15_49"/>
<feBlend mode="normal" in="SourceGraphic" in2="effect1_dropShadow_15_49" result="shape"/>
</filter>
</defs>
</svg>
