<svg width="113" height="35" viewBox="0 0 113 35" fill="none" xmlns="http://www.w3.org/2000/svg">
<path fill-rule="evenodd" clip-rule="evenodd" d="M21.4749 8.60511C26.3712 8.60511 30.3404 12.5874 30.3404 17.5C30.3404 22.4125 26.3712 26.3949 21.4749 26.3949C16.5785 26.3949 12.6093 22.4125 12.6093 17.5C12.6093 12.5874 16.5785 8.60511 21.4749 8.60511ZM113 26.3949H110.601L102.062 12.8054L101.987 12.8304V26.3949H99.5885V8.60095H101.987L110.526 22.1778L110.601 22.1529V8.60095H113V26.3949ZM87.5322 15.8962C87.5322 14.2695 87.0915 12.9306 86.2143 11.8878C85.3371 10.845 84.1605 10.3236 82.6847 10.3236C81.2878 10.3236 80.1737 10.845 79.3422 11.8878C78.5066 12.9306 78.0908 14.2695 78.0908 15.8962V19.0871C78.0908 20.7347 78.5066 22.0778 79.3422 23.1206C80.1737 24.1633 81.2878 24.6847 82.6847 24.6847C84.1689 24.6847 85.3496 24.1633 86.2226 23.1247C87.0957 22.0861 87.5322 20.7389 87.5322 19.0871V15.8962ZM65.7934 26.3949H63.3822V8.60095H65.7934V26.3949ZM89.9309 19.0871C89.9309 21.2602 89.2575 23.0663 87.9146 24.5012C86.5718 25.9361 84.8257 26.6493 82.6847 26.6535C80.6143 26.6493 78.9306 25.9361 77.6335 24.5012C76.3406 23.0663 75.6921 21.2602 75.6921 19.0871V15.9213C75.6921 13.7564 76.3406 11.9503 77.6335 10.5071C78.9306 9.06816 80.6143 8.34649 82.6847 8.34649C84.8257 8.34649 86.5718 9.06393 87.9146 10.503C89.2575 11.942 89.9309 13.7481 89.9309 15.9213V19.0871ZM43.4685 16.7889H46.89C48.2494 16.7889 49.2264 16.5302 49.8209 16.013C50.4196 15.4958 50.7148 14.7075 50.7148 13.648C50.7148 12.6469 50.4279 11.8711 49.8458 11.3205C49.2638 10.7699 48.3617 10.4947 47.1352 10.4947H43.4685V16.7889ZM43.4685 18.6825V26.3949H41.0697V8.61349H47.1352C49.0767 8.61349 50.5568 9.04724 51.5795 9.91067C52.6022 10.7741 53.1177 12.0296 53.1177 13.673C53.1177 14.5865 52.8765 15.379 52.4026 16.0548C51.9287 16.7346 51.2344 17.2685 50.3281 17.669C51.3009 17.986 51.9993 18.5032 52.4276 19.2165C52.8558 19.9297 53.0678 20.8097 53.0678 21.8609V23.5335C53.0678 24.0882 53.126 24.5846 53.2507 25.0267C53.3713 25.4647 53.5833 25.8234 53.8827 26.1029V26.3949H51.409C51.0931 26.1196 50.8893 25.7108 50.802 25.1728C50.7105 24.6347 50.669 24.0799 50.669 23.5126V21.8859C50.669 20.9224 50.3863 20.1507 49.8292 19.5626C49.268 18.9786 48.5155 18.6825 47.5759 18.6825H43.4685ZM6.69374 28.0938C8.30672 28.0938 9.6143 29.4057 9.6143 31.024C9.6143 31.5537 9.47428 32.0504 9.22926 32.4793C11.665 33.8265 14.4643 34.5932 17.4423 34.5932C22.1468 34.5932 26.4062 32.6799 29.4891 29.5867C31.1192 27.9513 32.4203 25.9858 33.2849 23.7989C32.6828 24.9032 31.9276 25.9113 31.0474 26.7944C28.6767 29.1729 25.4013 30.6442 21.7837 30.6442C18.1661 30.6442 14.8907 29.1729 12.52 26.7944C10.1493 24.4158 8.68287 21.1296 8.68287 17.5C8.68287 13.8704 10.1493 10.5842 12.52 8.20562C13.0651 7.65871 13.6582 7.15989 14.2921 6.71578C14.1729 6.49642 14.1051 6.24479 14.1051 5.97722C14.1051 5.12389 14.7945 4.4322 15.645 4.4322C16.2362 4.4322 16.7495 4.76644 17.0076 5.25681C18.4875 4.67524 20.0984 4.35578 21.7837 4.35578C25.4013 4.35578 28.6766 5.82707 31.0474 8.20562C31.9274 9.08857 32.6828 10.0968 33.2849 11.2011C32.4204 9.01423 31.1192 7.04877 29.4891 5.41326C26.4062 2.32007 22.1468 0.406756 17.4423 0.406756C12.7377 0.406756 8.47839 2.32007 5.39541 5.41326C2.31242 8.50653 0.405414 12.7799 0.405414 17.5C0.405414 21.8639 2.03542 25.8457 4.71781 28.8663C5.23787 28.3867 5.93166 28.0938 6.69374 28.0938ZM9.00266 32.8184C8.4684 33.5093 7.63288 33.9542 6.69374 33.9542C5.08072 33.9542 3.77314 32.6423 3.77314 31.024C3.77314 30.3172 4.02255 29.6687 4.438 29.1626C1.67819 26.067 0 21.9802 0 17.5C0 12.6677 1.95233 8.29249 5.1087 5.12561C8.26507 1.95879 12.6257 0 17.4423 0C22.2587 0 26.6195 1.95879 29.7759 5.12561C32.8944 8.25457 34.8373 12.5632 34.8834 17.3268C34.8841 17.3844 34.8846 17.4422 34.8846 17.5C34.8846 17.5578 34.8841 17.6156 34.8834 17.6732C34.8373 22.4369 32.8944 26.7455 29.7759 29.8744C26.6195 33.0412 22.2587 35 17.4423 35C14.3808 35 11.5036 34.2084 9.00266 32.8184ZM17.1478 5.63857C17.1721 5.74751 17.185 5.86091 17.185 5.97722C17.185 6.83059 16.4956 7.52228 15.645 7.52228C15.207 7.52228 14.8118 7.33886 14.5313 7.04437C13.9142 7.47608 13.337 7.96115 12.8067 8.49328C10.5093 10.7983 9.08825 13.9827 9.08825 17.5C9.08825 21.0173 10.5093 24.2017 12.8067 26.5067C15.1041 28.8117 18.278 30.2374 21.7837 30.2374C25.2894 30.2374 28.4633 28.8117 30.7607 26.5067C33.0581 24.2017 34.4791 21.0173 34.4791 17.5C34.4791 13.9827 33.0581 10.7983 30.7607 8.49328C28.4633 6.18835 25.2894 4.76254 21.7837 4.76254C20.1477 4.76254 18.5839 5.07311 17.1478 5.63857ZM21.4749 10.9131C25.1007 10.9131 28.04 13.8622 28.04 17.5C28.04 21.1378 25.1007 24.0869 21.4749 24.0869C17.849 24.0869 14.9097 21.1378 14.9097 17.5C14.9097 13.8622 17.849 10.9131 21.4749 10.9131Z" fill="white"/>
</svg>
