<svg width="190" height="59" viewBox="0 0 190 59" fill="none" xmlns="http://www.w3.org/2000/svg">
<path fill-rule="evenodd" clip-rule="evenodd" d="M36.1082 14.5058C44.341 14.5058 51.0149 21.2188 51.0149 29.5C51.0149 37.7811 44.341 44.4942 36.1082 44.4942C27.8754 44.4942 21.2015 37.7811 21.2015 29.5C21.2015 21.2188 27.8754 14.5058 36.1082 14.5058ZM190 44.4942H185.967L171.609 21.5863L171.483 21.6285V44.4942H167.45V14.4987H171.483L185.841 37.3855L185.967 37.3434V14.4987H190V44.4942ZM147.178 26.7965C147.178 24.0543 146.437 21.7972 144.962 20.0394C143.487 18.2816 141.509 17.4026 139.027 17.4026C136.679 17.4026 134.805 18.2816 133.407 20.0394C132.002 21.7972 131.303 24.0543 131.303 26.7965V32.1754C131.303 34.9528 132.002 37.2168 133.407 38.9747C134.805 40.7324 136.679 41.6113 139.027 41.6113C141.523 41.6113 143.508 40.7324 144.976 38.9817C146.444 37.2308 147.178 34.9598 147.178 32.1754V26.7965ZM110.626 44.4942H106.572V14.4987H110.626V44.4942ZM151.211 32.1754C151.211 35.8387 150.079 38.8832 147.821 41.302C145.563 43.7208 142.627 44.9231 139.027 44.9301C135.546 44.9231 132.715 43.7208 130.534 41.302C128.36 38.8832 127.27 35.8387 127.27 32.1754V26.8387C127.27 23.1894 128.36 20.1448 130.534 17.712C132.715 15.2863 135.546 14.0698 139.027 14.0698C142.627 14.0698 145.563 15.2792 147.821 17.705C150.079 20.1308 151.211 23.1754 151.211 26.8387V32.1754ZM73.0886 28.3012H78.8415C81.1274 28.3012 82.77 27.8653 83.7697 26.9934C84.7762 26.1215 85.2726 24.7926 85.2726 23.0066C85.2726 21.3191 84.7903 20.0112 83.8116 19.0831C82.833 18.1551 81.316 17.691 79.2539 17.691H73.0886V28.3012ZM73.0886 31.4933V44.4942H69.0553V14.5199H79.2539C82.5184 14.5199 85.0069 15.2511 86.7266 16.7066C88.4461 18.1621 89.3129 20.2785 89.3129 23.0488C89.3129 24.5886 88.9074 25.9246 88.1106 27.0637C87.3138 28.2098 86.1464 29.1097 84.6225 29.7848C86.2582 30.3192 87.4325 31.1911 88.1526 32.3935C88.8725 33.5958 89.229 35.0793 89.229 36.8513V39.6708C89.229 40.6059 89.3269 41.4427 89.5366 42.1879C89.7393 42.9262 90.0958 43.5308 90.5992 44.002V44.4942H86.4399C85.9087 44.0302 85.5661 43.3411 85.4193 42.4341C85.2655 41.527 85.1957 40.5919 85.1957 39.6356V36.8933C85.1957 35.2692 84.7204 33.9683 83.7837 32.9769C82.84 31.9926 81.5747 31.4933 79.9949 31.4933H73.0886ZM11.255 47.358C13.9671 47.358 16.1656 49.5695 16.1656 52.2976C16.1656 53.1905 15.9302 54.0279 15.5182 54.7507C19.6137 57.0218 24.3206 58.3143 29.3277 58.3143C37.2379 58.3143 44.3997 55.089 49.5835 49.8748C52.3243 47.1179 54.5121 43.8046 55.9658 40.1181C54.9534 41.9797 53.6835 43.6791 52.2036 45.1677C48.2175 49.1772 42.7102 51.6573 36.6275 51.6573C30.5447 51.6573 25.0374 49.1772 21.0513 45.1677C17.0651 41.1581 14.5995 35.6185 14.5995 29.5C14.5995 23.3815 17.0651 17.8419 21.0513 13.8323C21.9678 12.9104 22.9651 12.0695 24.031 11.3209C23.8305 10.9511 23.7165 10.5269 23.7165 10.0759C23.7165 8.63741 24.8757 7.47142 26.3058 7.47142C27.2998 7.47142 28.1629 8.03486 28.5969 8.86148C31.0851 7.88111 33.7937 7.34261 36.6275 7.34261C42.7102 7.34261 48.2174 9.82278 52.2036 13.8323C53.6833 15.3207 54.9534 17.0203 55.9658 18.8818C54.5123 15.1954 52.3243 11.8822 49.5835 9.12521C44.3997 3.91098 37.2379 0.685674 29.3277 0.685674C21.4173 0.685674 14.2557 3.91098 9.07192 9.12521C3.88814 14.3396 0.681669 21.5433 0.681669 29.5C0.681669 36.8562 3.42239 43.5684 7.93261 48.6604C8.80703 47.8518 9.97359 47.358 11.255 47.358ZM15.1372 55.3224C14.2389 56.4872 12.834 57.2371 11.255 57.2371C8.5428 57.2371 6.34423 55.0256 6.34423 52.2976C6.34423 51.1061 6.76358 50.0129 7.46212 49.1598C2.82174 43.9416 0 37.0523 0 29.5C0 21.354 3.28268 13.9788 8.58985 8.64031C13.897 3.30197 21.2291 0 29.3277 0C37.426 0 44.7584 3.30197 50.0656 8.64031C55.3092 13.9149 58.576 21.178 58.6535 29.2081C58.6547 29.3051 58.6554 29.4025 58.6554 29.5C58.6554 29.5975 58.6547 29.6948 58.6535 29.792C58.576 37.8223 55.3092 45.0852 50.0656 50.3597C44.7584 55.698 37.426 59 29.3277 59C24.18 59 19.3423 57.6655 15.1372 55.3224ZM28.8325 9.50502C28.8735 9.68865 28.8951 9.87982 28.8951 10.0759C28.8951 11.5144 27.736 12.6804 26.3058 12.6804C25.5694 12.6804 24.9048 12.3712 24.4332 11.8748C23.3956 12.6025 22.4251 13.4202 21.5333 14.3172C17.6705 18.2028 15.2811 23.5709 15.2811 29.5C15.2811 35.4292 17.6705 40.7972 21.5333 44.6828C25.3962 48.5683 30.7329 50.9717 36.6275 50.9717C42.522 50.9717 47.8587 48.5683 51.7215 44.6828C55.5845 40.7972 57.9738 35.4292 57.9738 29.5C57.9738 23.5709 55.5845 18.2028 51.7215 14.3172C47.8587 10.4318 42.522 8.02828 36.6275 8.02828C33.8766 8.02828 31.2473 8.55182 28.8325 9.50502ZM36.1082 18.3965C42.2047 18.3965 47.1469 23.3677 47.1469 29.5C47.1469 35.6323 42.2047 40.6036 36.1082 40.6036C30.0116 40.6036 25.0695 35.6323 25.0695 29.5C25.0695 23.3677 30.0116 18.3965 36.1082 18.3965Z" fill="white"/>
</svg>
