<svg width="161" height="50" viewBox="0 0 161 50" fill="none" xmlns="http://www.w3.org/2000/svg">
<path fill-rule="evenodd" clip-rule="evenodd" d="M30.597 12.293C37.5732 12.293 43.2284 17.9821 43.2284 25C43.2284 32.0179 37.5732 37.7069 30.597 37.7069C23.6207 37.7069 17.9655 32.0179 17.9655 25C17.9655 17.9821 23.6207 12.293 30.597 12.293ZM161 37.7069H157.582L145.416 18.2935L145.309 18.3292V37.7069H141.892V12.2871H145.309L157.476 31.6826L157.582 31.647V12.2871H161V37.7069ZM124.714 22.7089C124.714 20.385 124.086 18.4722 122.836 16.9825C121.586 15.4929 119.91 14.748 117.807 14.748C115.817 14.748 114.23 15.4929 113.045 16.9825C111.855 18.4722 111.262 20.385 111.262 22.7089V27.2673C111.262 29.621 111.855 31.5397 113.045 33.0294C114.23 34.519 115.817 35.2638 117.807 35.2638C119.922 35.2638 121.604 34.519 122.848 33.0353C124.092 31.5516 124.714 29.627 124.714 27.2673V22.7089ZM93.741 37.7069H90.3056V12.2871H93.741V37.7069ZM128.132 27.2673C128.132 30.3718 127.172 32.9519 125.259 35.0017C123.346 37.0515 120.858 38.0705 117.807 38.0764C114.858 38.0705 112.459 37.0515 110.611 35.0017C108.768 32.9519 107.844 30.3718 107.844 27.2673V22.7447C107.844 19.652 108.768 17.0719 110.611 15.0102C112.459 12.9545 114.858 11.9236 117.807 11.9236C120.858 11.9236 123.346 12.9485 125.259 15.0042C127.172 17.06 128.132 19.6402 128.132 22.7447V27.2673ZM61.933 23.9841H66.8078C68.7448 23.9841 70.1367 23.6146 70.9838 22.8757C71.8367 22.1369 72.2573 21.0107 72.2573 19.4971C72.2573 18.067 71.8486 16.9587 71.0193 16.1722C70.1901 15.3856 68.9047 14.9924 67.1573 14.9924H61.933V23.9841ZM61.933 26.6892V37.7069H58.5153V12.305H67.1573C69.9235 12.305 72.0322 12.9246 73.4893 14.1581C74.9464 15.3916 75.6809 17.1852 75.6809 19.5329C75.6809 20.8378 75.3373 21.97 74.6621 22.9354C73.9869 23.9066 72.9977 24.6693 71.7064 25.2414C73.0925 25.6943 74.0875 26.4331 74.6977 27.4521C75.3078 28.471 75.6099 29.7282 75.6099 31.2299V33.6193C75.6099 34.4118 75.6928 35.1209 75.8705 35.7525C76.0423 36.3782 76.3444 36.8905 76.7709 37.2899V37.7069H73.2464C72.7963 37.3137 72.506 36.7297 72.3816 35.9611C72.2513 35.1924 72.1922 34.3999 72.1922 33.5895V31.2655C72.1922 29.8891 71.7894 28.7867 70.9956 27.9466C70.196 27.1124 69.1238 26.6892 67.7852 26.6892H61.933ZM9.5371 40.1339C11.8352 40.1339 13.6982 42.0081 13.6982 44.32C13.6982 45.0767 13.4988 45.7863 13.1497 46.3989C16.62 48.3235 20.6085 49.4189 24.8514 49.4189C31.5542 49.4189 37.6229 46.6856 42.0155 42.2668C44.338 39.9304 46.1918 37.1225 47.4236 33.9984C46.5658 35.576 45.4897 37.0162 44.2357 38.2777C40.858 41.6756 36.1913 43.7774 31.037 43.7774C25.8826 43.7774 21.2159 41.6756 17.8382 38.2777C14.4605 34.8798 12.3712 30.1851 12.3712 25C12.3712 19.8148 14.4605 15.1202 17.8382 11.7223C18.6148 10.941 19.4599 10.2284 20.3631 9.59398C20.1932 9.28059 20.0966 8.92112 20.0966 8.53889C20.0966 7.31984 21.0789 6.33172 22.2907 6.33172C23.133 6.33172 23.8644 6.8092 24.2321 7.50973C26.3406 6.67891 28.6357 6.22255 31.037 6.22255C36.1913 6.22255 40.8579 8.32439 44.2357 11.7223C45.4896 12.9837 46.5658 14.424 47.4236 16.0016C46.192 12.8775 44.338 10.0697 42.0155 7.73323C37.6229 3.31439 31.5542 0.581079 24.8514 0.581079C18.1484 0.581079 12.0798 3.31439 7.68726 7.73323C3.29469 12.1522 0.577625 18.257 0.577625 25C0.577625 31.2341 2.90003 36.9224 6.72184 41.2376C7.4628 40.5524 8.45131 40.1339 9.5371 40.1339ZM12.8268 46.8834C12.0656 47.8705 10.8752 48.506 9.5371 48.506C7.2389 48.506 5.3759 46.6319 5.3759 44.32C5.3759 43.3102 5.73125 42.3838 6.32316 41.6608C2.39105 37.2386 0 31.4002 0 25C0 18.0966 2.78164 11.8464 7.27877 7.3223C11.7759 2.79828 17.9889 0 24.8514 0C31.7137 0 37.9269 2.79828 42.424 7.3223C46.8673 11.7922 49.6355 17.9474 49.7011 24.7526C49.7022 24.8348 49.7028 24.9174 49.7028 25C49.7028 25.0826 49.7022 25.1651 49.7011 25.2474C49.6355 32.0528 46.8673 38.2078 42.424 42.6777C37.9269 47.2017 31.7137 50 24.8514 50C20.4894 50 16.39 48.8691 12.8268 46.8834ZM24.4318 8.05511C24.4665 8.21072 24.4848 8.37273 24.4848 8.53889C24.4848 9.75798 23.5026 10.7461 22.2907 10.7461C21.6667 10.7461 21.1035 10.4841 20.7039 10.0634C19.8247 10.6801 19.0023 11.3731 18.2467 12.1333C14.9734 15.4261 12.9487 19.9753 12.9487 25C12.9487 30.0248 14.9734 34.5739 18.2467 37.8667C21.52 41.1596 26.0421 43.1963 31.037 43.1963C36.0318 43.1963 40.5539 41.1596 43.8272 37.8667C47.1005 34.5739 49.1251 30.0248 49.1251 25C49.1251 19.9753 47.1005 15.4261 43.8272 12.1333C40.5539 8.8405 36.0318 6.80363 31.037 6.80363C28.706 6.80363 26.478 7.2473 24.4318 8.05511ZM30.597 15.5902C35.7629 15.5902 39.9508 19.8031 39.9508 25C39.9508 30.1968 35.7629 34.4098 30.597 34.4098C25.4309 34.4098 21.2431 30.1968 21.2431 25C21.2431 19.8031 25.4309 15.5902 30.597 15.5902Z" fill="white"/>
</svg>
