<svg width="165" height="56" viewBox="0 0 165 56" fill="none" xmlns="http://www.w3.org/2000/svg">
<g filter="url(#filter0_d_51_316)">
<path fill-rule="evenodd" clip-rule="evenodd" d="M33.8368 11.8013C40.6397 11.8013 46.1544 17.2628 46.1544 24C46.1544 30.7372 40.6397 36.1987 33.8368 36.1987C27.0339 36.1987 21.5192 30.7372 21.5192 24C21.5192 17.2628 27.0339 11.8013 33.8368 11.8013ZM161 36.1987H157.667L145.803 17.5618L145.699 17.596V36.1987H142.366V11.7956H145.699L157.563 30.4153L157.667 30.3811V11.7956H161V36.1987ZM125.615 21.8005C125.615 19.5696 125.003 17.7333 123.784 16.3032C122.566 14.8732 120.931 14.1581 118.881 14.1581C116.94 14.1581 115.392 14.8732 114.236 16.3032C113.076 17.7333 112.498 19.5696 112.498 21.8005V26.1766C112.498 28.4362 113.076 30.2781 114.236 31.7082C115.392 33.1382 116.94 33.8533 118.881 33.8533C120.943 33.8533 122.583 33.1382 123.796 31.7139C125.009 30.2895 125.615 28.4419 125.615 26.1766V21.8005ZM95.412 36.1987H92.062V11.7956H95.412V36.1987ZM128.948 26.1766C128.948 29.1569 128.013 31.6338 126.147 33.6016C124.281 35.5695 121.855 36.5476 118.881 36.5533C116.004 36.5476 113.665 35.5695 111.862 33.6016C110.066 31.6338 109.165 29.1569 109.165 26.1766V21.8349C109.165 18.866 110.066 16.389 111.862 14.4097C113.665 12.4363 116.004 11.4466 118.881 11.4466C121.855 11.4466 124.281 12.4305 126.147 14.4041C128.013 16.3776 128.948 18.8546 128.948 21.8349V26.1766ZM64.3943 23.0247H69.148C71.0368 23.0247 72.3942 22.67 73.2203 21.9607C74.0519 21.2514 74.4621 20.1703 74.4621 18.7173C74.4621 17.3443 74.0636 16.2803 73.2548 15.5253C72.4462 14.7702 71.1927 14.3927 69.4888 14.3927H64.3943V23.0247ZM64.3943 25.6217V36.1987H61.0615V11.8128H69.4888C72.1862 11.8128 74.2426 12.4076 75.6635 13.5918C77.0844 14.7759 77.8006 16.4978 77.8006 18.7516C77.8006 20.0043 77.4656 21.0912 76.8072 22.018C76.1487 22.9503 75.1841 23.6825 73.9249 24.2317C75.2765 24.6665 76.2468 25.3758 76.8419 26.354C77.4368 27.3322 77.7314 28.5391 77.7314 29.9807V32.2746C77.7314 33.0353 77.8122 33.7161 77.9855 34.3224C78.153 34.923 78.4476 35.4149 78.8635 35.7983V36.1987H75.4266C74.9877 35.8212 74.7046 35.2605 74.5833 34.5226C74.4562 33.7847 74.3986 33.0239 74.3986 32.2459V30.0149C74.3986 28.6936 74.0058 27.6353 73.2318 26.8287C72.452 26.0279 71.4065 25.6217 70.1011 25.6217H64.3943ZM13.3001 38.5286C15.5412 38.5286 17.3579 40.3277 17.3579 42.5472C17.3579 43.2736 17.1634 43.9549 16.823 44.543C20.2071 46.3906 24.0965 47.4422 28.2339 47.4422C34.7703 47.4422 40.6882 44.8182 44.9716 40.5761C47.2364 38.3332 49.0442 35.6376 50.2454 32.6385C49.4089 34.153 48.3595 35.5355 47.1367 36.7466C43.8429 40.0086 39.2921 42.0263 34.2659 42.0263C29.2396 42.0263 24.6888 40.0086 21.395 36.7466C18.1012 33.4846 16.0638 28.9777 16.0638 24C16.0638 19.0222 18.1012 14.5154 21.395 11.2534C22.1524 10.5034 22.9764 9.81927 23.8572 9.21022C23.6915 8.90937 23.5973 8.56428 23.5973 8.19733C23.5973 7.02705 24.5552 6.07845 25.7369 6.07845C26.5582 6.07845 27.2715 6.53684 27.63 7.20934C29.6861 6.41175 31.9243 5.97365 34.2659 5.97365C39.2921 5.97365 43.8428 7.99141 47.1367 11.2534C48.3594 12.4643 49.4089 13.847 50.2454 15.3615C49.0443 12.3624 47.2364 9.66689 44.9716 7.4239C40.6882 3.18181 34.7703 0.557836 28.2339 0.557836C21.6975 0.557836 15.7797 3.18181 11.4963 7.4239C7.21283 11.6661 4.56327 17.5267 4.56327 24C4.56327 29.9847 6.82798 35.4455 10.5548 39.5881C11.2774 38.9303 12.2413 38.5286 13.3001 38.5286ZM16.5081 45.008C15.7658 45.9557 14.605 46.5658 13.3001 46.5658C11.0591 46.5658 9.24233 44.7666 9.24233 42.5472C9.24233 41.5778 9.58886 40.6885 10.1661 39.9944C6.33164 35.7491 4 30.1442 4 24C4 17.3728 6.71253 11.3726 11.0979 7.02941C15.4833 2.68635 21.5419 0 28.2339 0C34.9257 0 40.9846 2.68635 45.37 7.02941C49.7029 11.3206 52.4023 17.2295 52.4663 23.7625C52.4673 23.8414 52.4679 23.9207 52.4679 24C52.4679 24.0793 52.4673 24.1585 52.4663 24.2375C52.4023 30.7707 49.7029 36.6795 45.37 40.9706C40.9846 45.3137 34.9257 48 28.2339 48C23.9803 48 19.9828 46.9143 16.5081 45.008ZM27.8248 7.7329C27.8586 7.88229 27.8765 8.03782 27.8765 8.19733C27.8765 9.36766 26.9187 10.3163 25.7369 10.3163C25.1284 10.3163 24.5792 10.0647 24.1896 9.66085C23.3322 10.2529 22.5302 10.9182 21.7933 11.6479C18.6014 14.8091 16.627 19.1763 16.627 24C16.627 28.8238 18.6014 33.1909 21.7933 36.3521C24.9853 39.5132 29.395 41.4685 34.2659 41.4685C39.1366 41.4685 43.5464 39.5132 46.7383 36.3521C49.9303 33.1909 51.9046 28.8238 51.9046 24C51.9046 19.1763 49.9303 14.8091 46.7383 11.6479C43.5464 8.48688 39.1366 6.53148 34.2659 6.53148C31.9928 6.53148 29.8202 6.95741 27.8248 7.7329ZM33.8368 14.9666C38.8744 14.9666 42.9582 19.011 42.9582 24C42.9582 28.989 38.8744 33.0334 33.8368 33.0334C28.7991 33.0334 24.7153 28.989 24.7153 24C24.7153 19.011 28.7991 14.9666 33.8368 14.9666Z" fill="white"/>
</g>
<defs>
<filter id="filter0_d_51_316" x="0" y="0" width="165" height="56" filterUnits="userSpaceOnUse" color-interpolation-filters="sRGB">
<feFlood flood-opacity="0" result="BackgroundImageFix"/>
<feColorMatrix in="SourceAlpha" type="matrix" values="0 0 0 0 0 0 0 0 0 0 0 0 0 0 0 0 0 0 127 0" result="hardAlpha"/>
<feOffset dy="4"/>
<feGaussianBlur stdDeviation="2"/>
<feComposite in2="hardAlpha" operator="out"/>
<feColorMatrix type="matrix" values="0 0 0 0 0 0 0 0 0 0 0 0 0 0 0 0 0 0 0.25 0"/>
<feBlend mode="normal" in2="BackgroundImageFix" result="effect1_dropShadow_51_316"/>
<feBlend mode="normal" in="SourceGraphic" in2="effect1_dropShadow_51_316" result="shape"/>
</filter>
</defs>
</svg>
